Coordinates
version=1
nRows=43
nColumns=12
inDegrees=yes

Units are S.I. units (second, meters, Newtons, ...)
Angles are in degrees

endheader
time	SC_y	SC_z	SC_x	AC_y	AC_z	AC_x	GH_y	GH_z	GH_yy	EL_x	PS_y
       0.0              -33.41          27.15          1.541          55.87          5.819         -7.891          161.6         -16.94          61.47          39.42          50.14
   0.04114               -33.4          27.15          1.541          55.87          5.817          -7.89          161.6         -16.93          61.48          39.43          50.15
   0.08228               -33.4          27.15          1.542          55.86          5.814          -7.89          161.5         -16.92          61.49          39.45          50.15
    0.1234              -33.39          27.15          1.542          55.86          5.811         -7.889          161.5         -16.91           61.5          39.46          50.16
    0.1646              -33.39          27.15          1.543          55.86          5.808         -7.889          161.4          -16.9           61.5          39.48          50.17
    0.2057              -33.39          27.15          1.543          55.85          5.805         -7.888          161.3         -16.89          61.51          39.49          50.17
    0.2468              -33.38          27.15          1.544          55.85          5.801         -7.888          161.3         -16.88          61.52          39.51          50.18
     0.288              -33.38          27.15          1.545          55.84          5.797         -7.887          161.2         -16.87          61.53          39.53          50.19
    0.3291              -33.37          27.15          1.545          55.84          5.793         -7.887          161.1         -16.85          61.54          39.55           50.2
    0.3703              -33.37          27.15          1.546          55.83          5.789         -7.886          161.1         -16.84          61.55          39.57          50.21
    0.4114              -33.36          27.15          1.547          55.83          5.784         -7.886          161.0         -16.82          61.56           39.6          50.22
    0.4526              -33.35          27.15          1.548          55.82          5.779         -7.885          160.9          -16.8          61.58          39.62          50.23
    0.4937              -33.35          27.15          1.549          55.81          5.774         -7.884          160.8         -16.79          61.59          39.65          50.24
    0.5348              -33.34          27.15           1.55          55.81          5.768         -7.883          160.7         -16.77           61.6          39.68          50.26
     0.576              -33.33          27.15          1.551           55.8          5.761         -7.882          160.6         -16.74          61.62          39.71          50.27
    0.6171              -33.32          27.15          1.552          55.79          5.755         -7.881          160.4         -16.72          61.64          39.75          50.29
    0.6583              -33.31          27.15          1.554          55.78          5.747          -7.88          160.3          -16.7          61.66          39.78           50.3
    0.6994               -33.3          27.15          1.555          55.77          5.739         -7.879          160.1         -16.67          61.68          39.82          50.32
    0.7405              -33.29          27.15          1.557          55.76           5.73         -7.878          160.0         -16.64           61.7          39.87          50.34
    0.7817              -33.28          27.15          1.559          55.75           5.72         -7.876          159.8         -16.61          61.73          39.92          50.36
    0.8228              -33.27          27.16          1.561          55.74           5.71         -7.875          159.6         -16.57          61.75          39.97          50.39
     0.864              -33.25          27.16          1.563          55.72          5.698         -7.873          159.4         -16.53          61.78          40.03          50.41
    0.9051              -33.24          27.16          1.565          55.71          5.685         -7.871          159.2         -16.48          61.82           40.1          50.44
    0.9463              -33.22          27.16          1.568          55.69           5.67         -7.869          158.9         -16.44          61.85          40.17          50.48
    0.9874               -33.2          27.16          1.571          55.67          5.654         -7.867          158.6         -16.38          61.89          40.25          50.51
     1.029              -33.18          27.16          1.574          55.65          5.637         -7.864          158.3         -16.32          61.94          40.34          50.55
      1.07              -33.15          27.16          1.577          55.62          5.617         -7.862          157.9         -16.25          61.99          40.44           50.6
     1.111              -33.12          27.16          1.581           55.6          5.594         -7.858          157.5         -16.18          62.05          40.56          50.65
     1.152              -33.09          27.16          1.586          55.56          5.569         -7.855          157.0         -16.09          62.11          40.68           50.7
     1.193              -33.05          27.16          1.591          55.53           5.54         -7.851          156.5         -15.99          62.18          40.83          50.77
     1.234              -33.01          27.17          1.597          55.49          5.507         -7.846          155.9         -15.88          62.27           41.0          50.84
     1.275              -32.96          27.17          1.604          55.44          5.469         -7.841          155.2         -15.75          62.36          41.19          50.93
     1.317              -32.91          27.17          1.612          55.39          5.425         -7.834          154.4          -15.6          62.47          41.41          51.03
     1.358              -32.84          27.17          1.621          55.33          5.374         -7.827          153.5         -15.43           62.6          41.67          51.14
     1.399              -32.77          27.18          1.632          55.26          5.315         -7.819          152.4         -15.23          62.75          41.97          51.28
      1.44              -32.68          27.18          1.645          55.17          5.245         -7.809          151.2         -14.99          62.93          42.32          51.43
     1.481              -32.58          27.19           1.66          55.07          5.162         -7.797          149.6         -14.71          63.14          42.74          51.62
     1.522              -32.45          27.19          1.678          54.95          5.062         -7.782          147.8         -14.37          63.39          43.24          51.85
     1.563               -32.3           27.2            1.7           54.8          4.941         -7.765          145.6         -13.96           63.7          43.85          52.12
     1.605              -32.11          27.21          1.726          54.63          4.794         -7.744          143.0         -13.47          64.07           44.6          52.45
     1.646              -31.88          27.22          1.759          54.41          4.612         -7.718          139.6         -12.85          64.54          45.52          52.86
     1.687               -31.6          27.23            1.8          54.13          4.385         -7.686          135.5         -12.08          65.11          46.66          53.37
     1.728              -31.24          27.25          1.852          53.78          4.099         -7.645          130.3         -11.11          65.84          48.11          54.01
